<?xml version="1.0" encoding="UTF-8"?>
<svg width="130px" height="154px" viewBox="0 0 130 154" version="1.1" xmlns="http://www.w3.org/2000/svg" xmlns:xlink="http://www.w3.org/1999/xlink">
    <!-- Generator: Sketch 52 (66869) - http://www.bohemiancoding.com/sketch -->
    <title>Logo/White</title>
    <desc>Created with Sketch.</desc>
    <!-- <g id="Logo/Light" transform="translate(652.000000, 264.000000)">
        <g id="LOGO">
            <path d="M112.245718,25.4978911 L24.1100041,25.4336054 C19.4933715,25.430238 15.7188817,29.2047278 15.722249,33.8213605 L15.7681674,96.7754421 C15.7715347,101.392075 19.5515347,105.172075 24.1681674,105.175442 L112.303882,105.239728 C116.920514,105.243095 120.695004,101.468605 120.691637,96.8519727 L120.645718,33.8978911 C120.642351,29.2812584 116.862351,25.5012584 112.245718,25.4978911 Z" id="Path" transform="translate(68.206943, 65.336667) rotate(-135.000000) translate(-68.206943, -65.336667) "></path>
            <path d="M35.6760879,63.7824265 L122.762568,63.8459469 L122.758741,58.5997734 C122.755374,53.9831408 118.975374,50.2031408 114.358741,50.1997734 L22.0260879,50.1324265 C17.4094553,50.1290591 13.6349655,53.9035489 13.6383328,58.5201816 L13.6873124,125.671202 C13.6906798,130.287835 17.4706798,134.067835 22.0873124,134.071202 L27.3334859,134.075029 L27.2883328,72.1701816 C27.2849655,67.5535489 31.0594553,63.7790591 35.6760879,63.7824265 Z" id="Path" transform="translate(68.200449, 92.103726) rotate(-135.000000) translate(-68.200449, -92.103726) "></path>
        </g>
    </g> -->
    <g stroke="none" stroke-width="1" fill="none" fill-rule="evenodd">
        <g transform="translate(-655.000000, -267.000000)" fill="#FFFFFF">
            <g id="Logo/Light" transform="translate(652.000000, 264.000000)">
                <g id="LOGO">
                    <path d="M112.245718,25.4978911 L24.1100041,25.4336054 C19.4933715,25.430238 15.7188817,29.2047278 15.722249,33.8213605 L15.7681674,96.7754421 C15.7715347,101.392075 19.5515347,105.172075 24.1681674,105.175442 L112.303882,105.239728 C116.920514,105.243095 120.695004,101.468605 120.691637,96.8519727 L120.645718,33.8978911 C120.642351,29.2812584 116.862351,25.5012584 112.245718,25.4978911 Z" id="Path" transform="translate(68.206943, 65.336667) rotate(-135.000000) translate(-68.206943, -65.336667) "></path>
                    <path d="M35.6760879,63.7824265 L122.762568,63.8459469 L122.758741,58.5997734 C122.755374,53.9831408 118.975374,50.2031408 114.358741,50.1997734 L22.0260879,50.1324265 C17.4094553,50.1290591 13.6349655,53.9035489 13.6383328,58.5201816 L13.6873124,125.671202 C13.6906798,130.287835 17.4706798,134.067835 22.0873124,134.071202 L27.3334859,134.075029 L27.2883328,72.1701816 C27.2849655,67.5535489 31.0594553,63.7790591 35.6760879,63.7824265 Z" id="Path" transform="translate(68.200449, 92.103726) rotate(-135.000000) translate(-68.200449, -92.103726) "></path>
                </g>
            </g>
        </g>
    </g>
</svg>