<?xml version="1.0" encoding="UTF-8"?>
<svg width="152px" height="52px" viewBox="0 0 152 52" version="1.1" xmlns="http://www.w3.org/2000/svg" xmlns:xlink="http://www.w3.org/1999/xlink">
    <!-- Generator: Sketch 52 (66869) - http://www.bohemiancoding.com/sketch -->
    <title>Badges/AppStore/Dark</title>
    <desc>Created with Sketch.</desc>
    <g id="Website" stroke="none" stroke-width="1" fill="none" fill-rule="evenodd">
        <g id="Badges/AppStore/Dark" transform="translate(76.000000, 26.000000) rotate(-360.000000) translate(-76.000000, -26.000000) ">
            <g>
                <g id="Group">
                    <g id="Path">
                        <path d="M139.504042,0 L12.0772613,0 C11.6127747,0 11.1538613,0 10.6906033,0.0026 C10.3028133,0.0052 9.918114,0.012753 9.5266,0.01911 C8.67605066,0.0293823447 7.82750153,0.106179138 6.98832667,0.248833 C6.1503305,0.394592416 5.33858519,0.669390462 4.58054533,1.063933 C3.82343259,1.46181322 3.13163702,1.97881779 2.53025533,2.596191 C1.9257165,3.21182809 1.4217867,3.92342129 1.03784333,4.703608 C0.652840306,5.48224186 0.385877964,6.31661978 0.246176667,7.177924 C0.105147192,8.03814038 0.0292579488,8.90827671 0.01919,9.780524 C0.00743533333,10.179104 0.006194,10.57901 0,10.977642 L0,41.02618 C0.006194,41.42983 0.00743533333,41.82087 0.01919,42.22465 C0.0292610362,43.096854 0.105150281,43.9669469 0.246176667,44.82712 C0.385492207,45.6889277 0.652470333,46.5237846 1.03784333,47.30271 C1.42161236,48.0803738 1.92561303,48.7890861 2.53025533,49.4013 C3.12935678,50.0214183 3.8215995,50.5387746 4.58054533,50.93361 C5.33857943,51.3292085 6.15023723,51.6056422 6.98832667,51.75365 C7.82764419,51.8951611 8.67610605,51.9719892 9.5266,51.98349 C9.918114,51.99233 10.3028133,51.9974 10.6906033,51.9974 C11.1538487,52 11.6128,52 12.0772613,52 L139.504042,52 C139.959282,52 140.421869,52 140.877109,51.9974 C141.263062,51.9974 141.658895,51.99233 142.044849,51.98349 C142.893735,51.9726008 143.740599,51.8957679 144.578182,51.75365 C145.418975,51.6046003 146.233543,51.3282398 146.995235,50.93361 C147.753497,50.538546 148.4451,50.0212038 149.043689,49.4013 C149.646771,48.7866884 150.151848,48.0784944 150.540382,47.30271 C150.922863,46.523218 151.1873,45.6884278 151.324575,44.82712 C151.465827,43.9668289 151.54441,43.0969295 151.559669,42.22465 C151.564609,41.82087 151.564609,41.42983 151.564609,41.02618 C151.574489,40.55389 151.574489,40.0842 151.574489,39.60424 L151.574489,12.396969 C151.574489,11.920896 151.574489,11.448632 151.564609,10.977642 C151.564609,10.57901 151.564609,10.179104 151.559669,9.780472 C151.544413,8.90814918 151.465831,8.03820637 151.324575,7.177872 C151.186917,6.31706608 150.922496,5.48275426 150.540382,4.703556 C149.758499,3.1397549 148.51866,1.86683302 146.995235,1.063816 C146.233541,0.670237594 145.418886,0.395512533 144.578182,0.248716 C143.740744,0.105433618 142.893791,0.0286100944 142.044849,0.018928 C141.658895,0.012584 141.263062,0.004966 140.877109,0.002431 C140.421869,-0.000169 139.959282,-0.000169 139.504042,-0.000169 L139.504042,0 Z" fill="#A6A6A6"></path>
                        <path d="M10.6967847,50.8625 C10.3108567,50.8625 9.93425133,50.85743 9.55135067,50.84859 C8.75814091,50.837983 7.96678509,50.7671126 7.18377333,50.63656 C6.45365438,50.5075066 5.74636538,50.2674438 5.085236,49.92429 C4.43016883,49.5839795 3.8326949,49.1377547 3.31570267,48.60271 C2.79122708,48.0739678 2.3545772,47.4607172 2.02305667,46.78726 C1.68788306,46.1094259 1.45592298,45.3828694 1.33525667,44.6329 C1.20494752,43.8270493 1.13444487,43.0122072 1.12435667,42.1954 C1.116326,41.92123 1.10581267,41.00837 1.10581267,41.00837 L1.10581267,10.977642 C1.10581267,10.977642 1.11701,10.078809 1.12442,9.81474 C1.13407938,8.99922666 1.20417205,8.18564903 1.33409133,7.381049 C1.45498038,6.6290251 1.68712004,5.90037353 2.022474,5.220319 C2.35277611,4.547327 2.7870018,3.93361838 3.308318,3.402984 C3.82904825,2.86730784 4.42843338,2.41878535 5.08461533,2.073773 C5.74422524,1.73172168 6.45017756,1.49335231 7.17882067,1.366651 C7.96440396,1.23478698 8.75850706,1.16349491 9.55446667,1.153373 L10.6974053,1.1375 L140.870902,1.1375 L142.027495,1.15401 C142.816215,1.16362896 143.603104,1.23428501 144.381469,1.365377 C145.117488,1.49366759 145.830798,1.73370019 146.497942,2.077582 C147.812512,2.77288186 148.882153,3.87291183 149.556942,5.223491 C149.886943,5.89885083 150.115502,6.62155878 150.234862,7.367087 C150.366328,8.1782888 150.439906,8.99825984 150.455009,9.82046 C150.458682,10.18862 150.458682,10.58408 150.458682,10.977642 C150.468689,11.465142 150.468689,11.929151 150.468689,12.396969 L150.468689,39.60424 C150.468689,40.07653 150.468689,40.53738 150.458682,41.002 C150.458682,41.42476 150.458682,41.81203 150.453742,42.21061 C150.438966,43.0181384 150.366615,43.8234735 150.237269,44.62016 C150.119076,45.3755395 149.888378,46.1077671 149.553269,46.79116 C149.219405,47.4573075 148.785262,48.0652461 148.266842,48.59257 C147.749385,49.13049 147.150856,49.5793255 146.494269,49.92182 C145.828972,50.2676118 145.116713,50.5085624 144.381469,50.63656 C143.598516,50.7678093 142.807084,50.8386842 142.013815,50.84859 C141.642809,50.85743 141.254322,50.8625 140.877109,50.8625 L139.504042,50.8651 L10.6967847,50.8625 Z" fill="#000000"></path>
                    </g>
                    <g id="_Group_" transform="translate(11.400000, 10.400000)" fill="#FFFFFF">
                        <g id="_Group_2">
                            <g id="_Group_3">
                                <path d="M19.9739147,15.990884 C20.0016002,13.7854719 21.1281557,11.7483419 22.9588907,10.593206 C21.798716,8.8926666 19.9251633,7.85314186 17.9034213,7.788222 C15.776384,7.559084 13.714314,9.094501 12.6304147,9.094501 C11.5255393,9.094501 9.856706,7.810972 8.059648,7.848919 C5.69518827,7.92731994 3.54430709,9.27358312 2.39394933,11.39515 C-0.055784,15.748096 1.77149667,22.145461 4.118136,25.664054 C5.29220933,27.387009 6.664364,29.311594 8.45980067,29.243344 C10.2167433,29.168555 10.8729273,28.09352 12.9937073,28.09352 C15.0948033,28.09352 15.7104413,29.243344 17.5423073,29.19995 C19.4275887,29.168542 20.6154053,27.469338 21.7482867,25.730068 C22.5918564,24.5023996 23.240982,23.1455587 23.6716187,21.709805 C21.432477,20.7378357 19.9765281,18.4860446 19.9739147,15.990884 Z" id="_Path_"></path>
                                <path d="M16.51385,5.474157 C17.5417837,4.20768648 18.0482076,2.57985319 17.9255753,0.936351 C16.3551212,1.10563763 14.9044616,1.87596458 13.8626407,3.093844 C12.8338904,4.29544573 12.3127279,5.86746248 12.4139413,7.463651 C14.0054533,7.4804688 15.5165604,6.74719918 16.51385,5.474157 Z" id="_Path_2"></path>
                            </g>
                        </g>
                        <g id="Group" transform="translate(31.666667, 11.700000)">
                            <path d="M10.5162087,13.181545 L4.52056867,13.181545 L3.08072333,17.54493 L0.541208667,17.54493 L6.220182,1.40153 L8.85864867,1.40153 L14.537622,17.54493 L11.9548,17.54493 L10.5162087,13.181545 Z M5.14152667,11.168066 L9.89406,11.168066 L7.55122067,4.086615 L7.485658,4.086615 L5.14152667,11.168066 Z" id="Shape" fill-rule="nonzero"></path>
                            <path d="M26.802274,11.660649 C26.802274,15.318173 24.8948513,17.668066 22.016402,17.668066 C20.5285567,17.747944 19.1270877,16.9481399 18.4081373,15.608866 L18.3536707,15.608866 L18.3536707,21.43856 L15.9996973,21.43856 L15.9996973,5.775094 L18.2782533,5.775094 L18.2782533,7.732712 L18.321548,7.732712 C19.0724385,6.40183429 20.4754187,5.60237449 21.9731073,5.651945 C24.8836667,5.651958 26.802274,8.013278 26.802274,11.660649 Z M24.382738,11.660649 C24.382738,9.277749 23.1828627,7.711132 21.3521367,7.711132 C19.5535713,7.711132 18.3438033,9.310743 18.3438033,11.660649 C18.3438033,14.032135 19.5535713,15.620319 21.3521367,15.620319 C23.1828753,15.620319 24.382738,14.065142 24.382738,11.660649 Z" id="Shape" fill-rule="nonzero"></path>
                            <path d="M39.4244047,11.660649 C39.4244047,15.318173 37.516982,17.668066 34.6385327,17.668066 C33.1506873,17.747944 31.7492184,16.9481399 31.030268,15.608866 L30.9758013,15.608866 L30.9758013,21.43856 L28.621828,21.43856 L28.621828,5.775094 L30.9003333,5.775094 L30.9003333,7.732712 L30.943628,7.732712 C31.694524,6.4018351 33.0975096,5.60238 34.5952,5.651958 C37.505848,5.651958 39.4244047,8.013278 39.4244047,11.660649 Z M37.0048687,11.660649 C37.0048687,9.277749 35.8049933,7.711132 33.9742673,7.711132 C32.175702,7.711132 30.965934,9.310743 30.965934,11.660649 C30.965934,14.032135 32.175702,15.620319 33.9742673,15.620319 C35.805006,15.620319 37.0048813,14.065142 37.0048813,11.660649 L37.0048687,11.660649 Z" id="Shape" fill-rule="nonzero"></path>
                            <path d="M47.7665953,13.046969 C47.9410153,14.647854 49.4563287,15.698969 51.527012,15.698969 C53.5111313,15.698969 54.9386013,14.647802 54.9386013,13.204334 C54.9386013,11.951303 54.0776607,11.201034 52.0391253,10.686858 L50.00059,10.182848 C47.112248,9.466834 45.7713547,8.080501 45.7713547,5.83089 C45.7713547,3.045536 48.136462,1.132352 51.4948513,1.132352 C54.8185847,1.132352 57.097128,3.045536 57.1738247,5.83089 L54.797558,5.83089 C54.6553113,4.219852 53.3577127,3.2474 51.461424,3.2474 C49.5651353,3.2474 48.2675493,4.231292 48.2675493,5.66332 C48.2675493,6.804629 49.0963293,7.476209 51.1237307,7.99032 L52.8567333,8.427042 C56.08401,9.210344 57.4249033,10.540842 57.4249033,12.902136 C57.4249033,15.922348 55.0808227,17.813952 51.3525667,17.813952 C47.8642807,17.813952 45.5090787,15.966782 45.3569267,13.046852 L47.7665953,13.046969 Z" id="Path"></path>
                            <path d="M62.5051993,2.98974 L62.5051993,5.775094 L64.685994,5.775094 L64.685994,7.688278 L62.5051993,7.688278 L62.5051993,14.176851 C62.5051993,15.184858 62.9418573,15.654587 63.9005087,15.654587 C64.1594045,15.6499537 64.4178814,15.6312944 64.67486,15.598687 L64.67486,17.500444 C64.2438492,17.5830974 63.805763,17.6205308 63.3673687,17.612166 C61.0455687,17.612166 60.140092,16.717142 60.140092,14.434524 L60.140092,7.688278 L58.472652,7.688278 L58.472652,5.775094 L60.1400667,5.775094 L60.1400667,2.98974 L62.5051993,2.98974 Z" id="Path"></path>
                            <path d="M65.949,11.660649 C65.949,7.95743 68.0741247,5.630378 71.3880033,5.630378 C74.7130033,5.630378 76.8282353,7.957378 76.8282353,11.660649 C76.8282353,15.374034 74.7241373,17.69092 71.3880033,17.69092 C68.0530473,17.69092 65.949,15.374021 65.949,11.660649 Z M74.429726,11.660649 C74.429726,9.120319 73.2954133,7.621003 71.3879907,7.621003 C69.480568,7.621003 68.3474967,9.131746 68.3474967,11.660649 C68.3474967,14.211132 69.480568,15.699034 71.3879907,15.699034 C73.2954133,15.699034 74.4296753,14.211132 74.4296753,11.660649 L74.429726,11.660649 Z" id="Shape" fill-rule="nonzero"></path>
                            <path d="M78.7690093,5.775094 L81.0141253,5.775094 L81.0141253,7.778394 L81.068592,7.778394 C81.3816817,6.48877893 82.5330266,5.60122102 83.82705,5.651932 C84.0983245,5.6509599 84.3688504,5.68119597 84.633562,5.742074 L84.633562,8.001838 C84.2910946,7.89443632 83.9338422,7.84512468 83.5758953,7.855848 C82.8838497,7.82703407 82.2141031,8.11009515 81.7425112,8.63070777 C81.2709192,9.15132038 81.044597,9.85747196 81.12297,10.563748 L81.12297,17.544904 L78.7689967,17.544904 L78.7690093,5.775094 Z" id="Path"></path>
                            <path d="M95.48678,14.087983 C95.1701133,16.224598 93.1426993,17.690907 90.548756,17.690907 C87.212622,17.690907 85.141926,15.396862 85.141926,11.716497 C85.141926,8.024705 87.223756,5.630365 90.449804,5.630365 C93.622652,5.630365 95.6179053,7.867275 95.6179053,11.435931 L95.6179053,12.263667 L87.5181673,12.263667 L87.5181673,12.409657 C87.4425441,13.2858981 87.7373533,14.1532553 88.3276052,14.7911009 C88.9178571,15.4289465 89.7466615,15.7758033 90.6031973,15.743442 C91.7455309,15.8532915 92.8225279,15.180071 93.2515693,14.08797 L95.48678,14.087983 Z M87.529279,10.575201 L93.2626907,10.575188 C93.3054096,9.78782674 93.0261489,9.01787001 92.4921901,8.45082101 C91.9582312,7.88377201 91.2179877,7.57104453 90.449804,7.587983 C89.6755436,7.5832409 88.9315149,7.89611502 88.3830923,8.45706322 C87.8346697,9.01801142 87.5272953,9.78055379 87.529279,10.575201 Z" id="Shape" fill-rule="nonzero"></path>
                        </g>
                    </g>
                </g>
                <g id="_Group_4" transform="translate(44.333333, 10.400000)" fill="#FFFFFF">
                    <g id="Group">
                        <path d="M3.57984067,0.9503 C4.57917297,0.876699436 5.55799687,1.26691166 6.24689763,2.01353336 C6.9357984,2.76015507 7.26216211,3.78448823 7.13615933,4.804592 C7.13615933,7.282717 5.83115067,8.707192 3.57984067,8.707192 L0.849832,8.707192 L0.849832,0.9503 L3.57984067,0.9503 Z M2.02371533,7.6102 L3.44871533,7.6102 C4.1628898,7.65401261 4.85828293,7.36522671 5.34181012,6.82402733 C5.82533731,6.28282795 6.04552084,5.54683274 5.941224,4.8204 C6.03793275,4.09698189 5.81457834,3.36706008 5.33225003,2.83027418 C4.84992172,2.29348827 4.15909451,2.00601219 3.44871533,2.046473 L2.02371533,2.046473 L2.02371533,7.6102 Z" id="Shape" fill-rule="nonzero"></path>
                        <path d="M8.46219467,5.777642 C8.36439169,4.72839257 8.85461264,3.71294551 9.72726017,3.15717658 C10.5999077,2.60140764 11.7041036,2.60140764 12.5767512,3.15717658 C13.4493987,3.71294551 13.9396196,4.72839257 13.8418167,5.777642 C13.9414805,6.82801894 13.451707,7.8454355 12.5782857,8.40240089 C11.7048644,8.95936629 10.5991469,8.95936629 9.72572565,8.40240089 C8.85230437,7.8454355 8.36253087,6.82801894 8.46219467,5.777642 Z M12.6839947,5.777642 C12.6839947,4.508751 12.1285867,3.766711 11.1538613,3.766711 C10.175412,3.766711 9.62499467,4.508751 9.62499467,5.777655 C9.62499467,7.056712 10.17545,7.793032 11.1538613,7.793032 C12.128612,7.793019 12.6840073,7.051616 12.6840073,5.777642 L12.6839947,5.777642 Z" id="Shape" fill-rule="nonzero"></path>
                        <polygon id="Path" points="20.992796 8.707075 19.825094 8.707075 18.646258 4.395742 18.5571987 4.395742 17.3833027 8.707075 16.226722 8.707075 14.6545227 2.853266 15.796258 2.853266 16.818002 7.320066 16.9021213 7.320066 18.074776 2.853266 19.15466 2.853266 20.3273147 7.320066 20.416374 7.320066 21.4331653 2.853266 22.558814 2.853266"></polygon>
                        <path d="M23.8811507,2.853266 L24.9647333,2.853266 L24.9647333,3.783195 L25.0488527,3.783195 C25.3413701,3.09852132 26.024899,2.67969971 26.750936,2.74027 C27.3131039,2.6968913 27.8639888,2.91822687 28.2480483,3.34178269 C28.6321079,3.76533851 28.8076646,4.34515089 28.72515,4.91751 L28.72515,8.70701 L27.5995013,8.70701 L27.5995013,5.207618 C27.5995013,4.266899 27.201198,3.799068 26.3687067,3.799068 C25.9873967,3.78084085 25.6173456,3.93442734 25.3555692,4.21956182 C25.0937928,4.5046963 24.966399,4.89294131 25.0067867,5.282511 L25.0067867,8.707075 L23.881138,8.707075 L23.8811507,2.853266 Z" id="Path"></path>
                        <polygon id="Path" points="30.5187753 0.5681 31.644424 0.5681 31.644424 8.707062 30.5187753 8.707062"></polygon>
                        <path d="M33.2092007,5.777642 C33.1114728,4.72832392 33.6017711,3.71285117 34.4744834,3.15707366 C35.3471957,2.60129615 36.4514483,2.60129615 37.3241606,3.15707366 C38.1968729,3.71285117 38.6871712,4.72832392 38.5894433,5.777642 C38.6889805,6.82805655 38.1991173,7.84544435 37.3256527,8.40238521 C36.4521881,8.95932608 35.3464559,8.95932608 34.4729913,8.40238521 C33.5995267,7.84544435 33.1096635,6.82805655 33.2092007,5.777642 Z M37.4310007,5.777642 C37.4310007,4.508751 36.8755927,3.766711 35.9008673,3.766711 C34.922418,3.766711 34.3720007,4.508751 34.3720007,5.777655 C34.3720007,7.056712 34.922456,7.793032 35.9008673,7.793032 C36.8756053,7.793019 37.4310133,7.051616 37.4310133,5.777642 L37.4310007,5.777642 Z" id="Shape" fill-rule="nonzero"></path>
                        <path d="M39.7744733,7.051616 C39.7744733,5.997901 40.538932,5.390437 41.8958867,5.304104 L43.440878,5.212701 L43.440878,4.70743 C43.440878,4.089163 43.0425747,3.740048 42.273176,3.740048 C41.6447953,3.740048 41.2093787,3.976817 41.0844347,4.390685 L39.994658,4.390685 C40.1096967,3.385213 41.0312473,2.740296 42.325122,2.740296 C43.7550747,2.740296 44.5615867,3.470896 44.5615867,4.70743 L44.5615867,8.707088 L43.4779913,8.707088 L43.4779913,7.884435 L43.388932,7.884435 C43.0209002,8.48519923 42.3664199,8.8363122 41.6757147,8.803535 C41.1915138,8.85522536 40.7086035,8.69428386 40.346368,8.36049818 C39.9841326,8.0267125 39.776381,7.5512363 39.7744733,7.051616 Z M43.440878,6.551415 L43.440878,6.062017 L42.0480387,6.15342 C41.2625533,6.20737 40.9063033,6.481592 40.9063033,6.997653 C40.9063033,7.524504 41.3516127,7.831096 41.96397,7.831096 C42.3264724,7.86875682 42.6883468,7.75381757 42.9667525,7.51259027 C43.2451582,7.27136296 43.416256,6.92450337 43.440878,6.551415 Z" id="Shape" fill-rule="nonzero"></path>
                        <path d="M46.0410027,5.777642 C46.0410027,3.927937 46.967506,2.756156 48.40858,2.756156 C49.1362506,2.72174517 49.8177815,3.12191473 50.1576693,3.783156 L50.2417887,3.783156 L50.2417887,0.5681 L51.3674373,0.5681 L51.3674373,8.707062 L50.2887947,8.707062 L50.2887947,7.782203 L50.1997353,7.782203 C49.8341553,8.43795808 49.1442277,8.83136342 48.4085927,8.803535 C46.9576133,8.8036 46.0410027,7.631793 46.0410027,5.777642 Z M47.2038027,5.777642 C47.2038027,7.019246 47.774056,7.766369 48.7277673,7.766369 C49.6765007,7.766369 50.2628533,7.008469 50.2628533,5.782725 C50.2628533,4.562701 49.6703447,3.793998 48.7277673,3.793998 C47.7801993,3.793998 47.2037647,4.546191 47.2037647,5.777642 L47.2038027,5.777642 Z" id="Shape" fill-rule="nonzero"></path>
                        <path d="M56.0246667,5.777642 C55.9268637,4.72839257 56.4170846,3.71294551 57.2897322,3.15717658 C58.1623797,2.60140764 59.2665756,2.60140764 60.1392232,3.15717658 C61.0118707,3.71294551 61.5020916,4.72839257 61.4042887,5.777642 C61.5039525,6.82801894 61.014179,7.8454355 60.1407577,8.40240089 C59.2673364,8.95936629 58.1616189,8.95936629 57.2881976,8.40240089 C56.4147764,7.8454355 55.9250029,6.82801894 56.0246667,5.777642 Z M60.2464667,5.777642 C60.2464667,4.508751 59.6910587,3.766711 58.7163333,3.766711 C57.737884,3.766711 57.1874667,4.508751 57.1874667,5.777655 C57.1874667,7.056712 57.737922,7.793032 58.7163333,7.793032 C59.6910713,7.793019 60.2464667,7.051616 60.2464667,5.777642 Z" id="Shape" fill-rule="nonzero"></path>
                        <path d="M62.9146367,2.853266 L63.998232,2.853266 L63.998232,3.783195 L64.0823513,3.783195 C64.3748688,3.09852132 65.0583976,2.67969971 65.7844347,2.74027 C66.3466026,2.6968913 66.8974874,2.91822687 67.281547,3.34178269 C67.6656065,3.76533851 67.8411632,4.34515089 67.7586487,4.91751 L67.7586487,8.70701 L66.633,8.70701 L66.633,5.207618 C66.633,4.266899 66.2346967,3.799068 65.4022053,3.799068 C65.0208954,3.78084085 64.6508442,3.93442734 64.3890678,4.21956182 C64.1272914,4.5046963 63.9998977,4.89294131 64.0402853,5.282511 L64.0402853,8.707075 L62.9146367,8.707075 L62.9146367,2.853266 Z" id="Path"></path>
                        <path d="M74.1192027,1.395849 L74.1192027,2.879929 L75.35495,2.879929 L75.35495,3.853031 L74.1192027,3.853031 L74.1192027,6.86309 C74.1192027,7.476274 74.3653667,7.744776 74.9257147,7.744776 C75.0691717,7.7443048 75.2124848,7.73540256 75.35495,7.718113 L75.35495,8.680412 C75.152802,8.71752793 74.9479898,8.73727405 74.7426433,8.739445 C73.490822,8.739445 72.9923127,8.287487 72.9923127,7.158879 L72.9923127,3.852979 L72.0868487,3.852979 L72.0868487,2.879877 L72.9923127,2.879877 L72.9923127,1.395849 L74.1192027,1.395849 Z" id="Path"></path>
                        <path d="M76.892506,0.5681 L78.008262,0.5681 L78.008262,3.793985 L78.0973213,3.793985 C78.4038898,3.10331913 79.0993815,2.6839638 79.8364547,2.745353 C80.3954304,2.71413647 80.9388579,2.94034483 81.3187197,3.36236401 C81.6985816,3.78438319 81.8753129,4.35825733 81.800776,4.927676 L81.800776,8.707075 L80.674,8.707075 L80.674,5.212675 C80.674,4.277663 80.2496667,3.804125 79.4543393,3.804125 C79.0627227,3.77116177 78.6768962,3.91727825 78.400007,4.20341155 C78.1231177,4.48954486 77.9833997,4.8865184 78.0182053,5.288205 L78.0182053,8.707049 L76.8925567,8.707049 L76.892506,0.5681 Z" id="Path"></path>
                        <path d="M88.36425,7.126509 C88.0486056,8.23070233 87.0074586,8.94413395 85.892768,8.820058 C85.1322156,8.84066326 84.4012825,8.51711991 83.8939024,7.93527171 C83.3865224,7.35342351 83.1539894,6.57209272 83.258,5.798585 C83.156752,5.02292762 83.3884138,4.24034485 83.8929684,3.65358104 C84.397523,3.06681723 85.1253225,2.73360978 85.8878153,2.740283 C87.47486,2.740283 88.4322827,3.853083 88.4322827,5.691283 L88.4322827,6.0944 L84.4046753,6.0944 L84.4046753,6.15914 C84.3690339,6.59352218 84.5135843,7.02318208 84.802777,7.34245291 C85.0919697,7.66172374 85.4989713,7.8409811 85.9236873,7.83614 C86.4743983,7.90399309 87.0104779,7.62363296 87.2806547,7.12647 L88.36425,7.126509 Z M84.40465,5.239988 L87.2855693,5.239988 C87.314263,4.84270857 87.178154,4.45146659 86.9107841,4.16267682 C86.6434142,3.87388705 86.2696488,3.71440709 85.881596,3.723538 C85.4882859,3.71846659 85.1096488,3.87662761 84.8315754,4.16214355 C84.553502,4.44765949 84.399562,4.83632986 84.4046753,5.239988 L84.40465,5.239988 Z" id="Shape" fill-rule="nonzero"></path>
                    </g>
                </g>
            </g>
        </g>
    </g>
</svg>